<mxfile host="app.diagrams.net" agent="Mozilla/5.0 (Macintosh; Intel Mac OS X 10_15_7) AppleWebKit/537.36 (KHTML, like Gecko) Chrome/131.0.0.0 Safari/537.36" version="25.0.3">
  <diagram name="Page-1" id="nXjj0HlRhY_JiosZ0ZTE">
    <mxGraphModel dx="1129" dy="745" grid="1" gridSize="10" guides="1" tooltips="1" connect="1" arrows="1" fold="1" page="1" pageScale="1" pageWidth="850" pageHeight="1100" math="0" shadow="0">
      <root>
        <mxCell id="0" />
        <mxCell id="1" parent="0" />
        <mxCell id="48B1_w8NbZ3T9QbM5a7j-42" value="" style="rounded=0;whiteSpace=wrap;html=1;" vertex="1" parent="1">
          <mxGeometry x="160" y="160" width="760" height="400" as="geometry" />
        </mxCell>
        <mxCell id="48B1_w8NbZ3T9QbM5a7j-20" value="" style="edgeStyle=orthogonalEdgeStyle;rounded=0;orthogonalLoop=1;jettySize=auto;html=1;entryX=-0.038;entryY=0.103;entryDx=0;entryDy=0;entryPerimeter=0;" edge="1" parent="1" source="48B1_w8NbZ3T9QbM5a7j-1" target="48B1_w8NbZ3T9QbM5a7j-5">
          <mxGeometry relative="1" as="geometry">
            <mxPoint x="200" y="223" as="targetPoint" />
          </mxGeometry>
        </mxCell>
        <mxCell id="48B1_w8NbZ3T9QbM5a7j-1" value="" style="verticalLabelPosition=bottom;html=1;verticalAlign=top;align=center;strokeColor=none;fillColor=#00BEF2;shape=mxgraph.azure.computer;pointerEvents=1;" vertex="1" parent="1">
          <mxGeometry x="70" y="200" width="50" height="45" as="geometry" />
        </mxCell>
        <mxCell id="48B1_w8NbZ3T9QbM5a7j-2" value="QB Desktop" style="text;html=1;align=center;verticalAlign=middle;whiteSpace=wrap;rounded=0;" vertex="1" parent="1">
          <mxGeometry x="65" y="250" width="60" height="30" as="geometry" />
        </mxCell>
        <mxCell id="48B1_w8NbZ3T9QbM5a7j-30" value="" style="edgeStyle=orthogonalEdgeStyle;rounded=0;orthogonalLoop=1;jettySize=auto;html=1;entryX=-0.025;entryY=0.546;entryDx=0;entryDy=0;entryPerimeter=0;" edge="1" parent="1" source="48B1_w8NbZ3T9QbM5a7j-5" target="48B1_w8NbZ3T9QbM5a7j-25">
          <mxGeometry relative="1" as="geometry" />
        </mxCell>
        <mxCell id="48B1_w8NbZ3T9QbM5a7j-5" value="Load&lt;div&gt;Balancer&lt;/div&gt;" style="rounded=1;whiteSpace=wrap;html=1;fillColor=#f5f5f5;fontColor=#333333;strokeColor=#666666;" vertex="1" parent="1">
          <mxGeometry x="480" y="200" width="60" height="220" as="geometry" />
        </mxCell>
        <mxCell id="48B1_w8NbZ3T9QbM5a7j-14" value="QB&lt;br&gt;Online" style="whiteSpace=wrap;html=1;aspect=fixed;fillColor=#ffe6cc;strokeColor=#d79b00;" vertex="1" parent="1">
          <mxGeometry x="320" y="320" width="80" height="80" as="geometry" />
        </mxCell>
        <mxCell id="48B1_w8NbZ3T9QbM5a7j-15" value="QB&lt;br&gt;Online" style="whiteSpace=wrap;html=1;aspect=fixed;fillColor=#ffe6cc;strokeColor=#d79b00;" vertex="1" parent="1">
          <mxGeometry x="330" y="330" width="80" height="80" as="geometry" />
        </mxCell>
        <mxCell id="48B1_w8NbZ3T9QbM5a7j-24" value="" style="edgeStyle=orthogonalEdgeStyle;rounded=0;orthogonalLoop=1;jettySize=auto;html=1;entryX=0;entryY=0.818;entryDx=0;entryDy=0;entryPerimeter=0;" edge="1" parent="1" source="48B1_w8NbZ3T9QbM5a7j-16" target="48B1_w8NbZ3T9QbM5a7j-5">
          <mxGeometry relative="1" as="geometry" />
        </mxCell>
        <mxCell id="48B1_w8NbZ3T9QbM5a7j-16" value="QB&lt;br&gt;Online" style="whiteSpace=wrap;html=1;aspect=fixed;fillColor=#ffe6cc;strokeColor=#d79b00;" vertex="1" parent="1">
          <mxGeometry x="340" y="340" width="80" height="80" as="geometry" />
        </mxCell>
        <mxCell id="48B1_w8NbZ3T9QbM5a7j-22" value="" style="edgeStyle=orthogonalEdgeStyle;rounded=0;orthogonalLoop=1;jettySize=auto;html=1;entryX=0;entryY=0.5;entryDx=0;entryDy=0;" edge="1" parent="1" source="48B1_w8NbZ3T9QbM5a7j-17" target="48B1_w8NbZ3T9QbM5a7j-14">
          <mxGeometry relative="1" as="geometry" />
        </mxCell>
        <mxCell id="48B1_w8NbZ3T9QbM5a7j-17" value="Load&lt;div&gt;Balancer&lt;/div&gt;" style="rounded=1;whiteSpace=wrap;html=1;fillColor=#f5f5f5;fontColor=#333333;strokeColor=#666666;" vertex="1" parent="1">
          <mxGeometry x="220" y="320" width="60" height="80" as="geometry" />
        </mxCell>
        <mxCell id="48B1_w8NbZ3T9QbM5a7j-21" value="" style="edgeStyle=orthogonalEdgeStyle;rounded=0;orthogonalLoop=1;jettySize=auto;html=1;" edge="1" parent="1" source="48B1_w8NbZ3T9QbM5a7j-18" target="48B1_w8NbZ3T9QbM5a7j-17">
          <mxGeometry relative="1" as="geometry" />
        </mxCell>
        <mxCell id="48B1_w8NbZ3T9QbM5a7j-18" value="" style="shape=umlActor;verticalLabelPosition=bottom;verticalAlign=top;html=1;outlineConnect=0;" vertex="1" parent="1">
          <mxGeometry x="80" y="330" width="30" height="60" as="geometry" />
        </mxCell>
        <mxCell id="48B1_w8NbZ3T9QbM5a7j-41" value="" style="edgeStyle=orthogonalEdgeStyle;rounded=0;orthogonalLoop=1;jettySize=auto;html=1;exitX=0.048;exitY=0.545;exitDx=0;exitDy=0;exitPerimeter=0;" edge="1" parent="1" source="48B1_w8NbZ3T9QbM5a7j-25" target="48B1_w8NbZ3T9QbM5a7j-5">
          <mxGeometry relative="1" as="geometry">
            <Array as="points">
              <mxPoint x="603" y="310" />
            </Array>
          </mxGeometry>
        </mxCell>
        <mxCell id="48B1_w8NbZ3T9QbM5a7j-25" value="QB&lt;br&gt;REST" style="rounded=0;whiteSpace=wrap;html=1;fillColor=#dae8fc;strokeColor=#6c8ebf;" vertex="1" parent="1">
          <mxGeometry x="600" y="200" width="60" height="200" as="geometry" />
        </mxCell>
        <mxCell id="48B1_w8NbZ3T9QbM5a7j-28" value="QB&lt;br&gt;REST" style="rounded=0;whiteSpace=wrap;html=1;fillColor=#dae8fc;strokeColor=#6c8ebf;" vertex="1" parent="1">
          <mxGeometry x="610" y="210" width="60" height="200" as="geometry" />
        </mxCell>
        <mxCell id="48B1_w8NbZ3T9QbM5a7j-34" value="" style="edgeStyle=orthogonalEdgeStyle;rounded=0;orthogonalLoop=1;jettySize=auto;html=1;exitX=0.971;exitY=0.202;exitDx=0;exitDy=0;exitPerimeter=0;entryX=-0.022;entryY=0.749;entryDx=0;entryDy=0;entryPerimeter=0;" edge="1" parent="1" source="48B1_w8NbZ3T9QbM5a7j-29" target="48B1_w8NbZ3T9QbM5a7j-31">
          <mxGeometry relative="1" as="geometry" />
        </mxCell>
        <mxCell id="48B1_w8NbZ3T9QbM5a7j-37" value="" style="edgeStyle=orthogonalEdgeStyle;rounded=0;orthogonalLoop=1;jettySize=auto;html=1;" edge="1" parent="1" source="48B1_w8NbZ3T9QbM5a7j-29" target="48B1_w8NbZ3T9QbM5a7j-35">
          <mxGeometry relative="1" as="geometry">
            <Array as="points">
              <mxPoint x="710" y="370" />
              <mxPoint x="710" y="370" />
            </Array>
          </mxGeometry>
        </mxCell>
        <mxCell id="48B1_w8NbZ3T9QbM5a7j-29" value="QB&lt;br&gt;REST&lt;div&gt;&lt;br&gt;&lt;/div&gt;&lt;div&gt;/sales/forcast&lt;/div&gt;&lt;div&gt;...&lt;/div&gt;&lt;div&gt;...&lt;/div&gt;" style="rounded=0;whiteSpace=wrap;html=1;fillColor=#dae8fc;strokeColor=#6c8ebf;" vertex="1" parent="1">
          <mxGeometry x="620" y="220" width="80" height="200" as="geometry" />
        </mxCell>
        <mxCell id="48B1_w8NbZ3T9QbM5a7j-43" value="" style="edgeStyle=orthogonalEdgeStyle;rounded=0;orthogonalLoop=1;jettySize=auto;html=1;" edge="1" parent="1" source="48B1_w8NbZ3T9QbM5a7j-31" target="48B1_w8NbZ3T9QbM5a7j-29">
          <mxGeometry relative="1" as="geometry">
            <Array as="points">
              <mxPoint x="770" y="260" />
              <mxPoint x="770" y="260" />
            </Array>
          </mxGeometry>
        </mxCell>
        <mxCell id="48B1_w8NbZ3T9QbM5a7j-31" value="" style="shape=cylinder3;whiteSpace=wrap;html=1;boundedLbl=1;backgroundOutline=1;size=15;fillColor=#fff2cc;strokeColor=#d6b656;" vertex="1" parent="1">
          <mxGeometry x="790" y="200" width="60" height="80" as="geometry" />
        </mxCell>
        <mxCell id="48B1_w8NbZ3T9QbM5a7j-32" value="" style="shape=cylinder3;whiteSpace=wrap;html=1;boundedLbl=1;backgroundOutline=1;size=15;fillColor=#fff2cc;strokeColor=#d6b656;" vertex="1" parent="1">
          <mxGeometry x="800" y="210" width="60" height="80" as="geometry" />
        </mxCell>
        <mxCell id="48B1_w8NbZ3T9QbM5a7j-33" value="DB-0" style="shape=cylinder3;whiteSpace=wrap;html=1;boundedLbl=1;backgroundOutline=1;size=15;fillColor=#fff2cc;strokeColor=#d6b656;" vertex="1" parent="1">
          <mxGeometry x="810" y="220" width="60" height="80" as="geometry" />
        </mxCell>
        <mxCell id="48B1_w8NbZ3T9QbM5a7j-38" value="" style="edgeStyle=orthogonalEdgeStyle;rounded=0;orthogonalLoop=1;jettySize=auto;html=1;" edge="1" parent="1" source="48B1_w8NbZ3T9QbM5a7j-35" target="48B1_w8NbZ3T9QbM5a7j-29">
          <mxGeometry relative="1" as="geometry">
            <Array as="points">
              <mxPoint x="700" y="370" />
              <mxPoint x="700" y="370" />
            </Array>
          </mxGeometry>
        </mxCell>
        <mxCell id="48B1_w8NbZ3T9QbM5a7j-35" value="AI Model Service&lt;div&gt;/sales/forcast&lt;/div&gt;" style="shape=hexagon;perimeter=hexagonPerimeter2;whiteSpace=wrap;html=1;fixedSize=1;fillColor=#f8cecc;strokeColor=#b85450;" vertex="1" parent="1">
          <mxGeometry x="770" y="330" width="120" height="80" as="geometry" />
        </mxCell>
      </root>
    </mxGraphModel>
  </diagram>
</mxfile>
